<svg viewBox="0 0 24 24" color="#fff" fill="none" xmlns="http://www.w3.org/2000/svg" width="24" height="24" font-size="24"><path d="m11.574 2.018-4.515.02c-.585 0-1.133.33-1.411.852l-2.36 4.36 7.831-.02.455-5.212ZM21.29 7.212l-2.386-4.36A1.627 1.627 0 0 0 17.483 2l-4.514.019.473 5.212 7.849-.019ZM21.584 10.21l.005-1.537h-.011v-.047l-8.593.029h-1.381L3.01 8.626v.047H3l.005 1.536L3 11.666c.003-.002.007-.002.01-.003l.027 7.841c0 .825.66 1.497 1.459 1.497h.01l7.788-.021 7.788.021h.01c.799 0 1.459-.672 1.459-1.497l.027-7.841a.048.048 0 0 0 .01.003l-.004-1.456Z" fill="currentColor"></path></svg>
